<svg xmlns="http://www.w3.org/2000/svg" width="512" height="512" enable-background="new 0 0 512 512" viewBox="0 0 512 512" id="radio"><path fill="#E74C3C" d="M89.5,363.5c0-5,0-152,0-152l67.563-55.629H376.5l44,60.629v162l-47,52h-209l-66-33L89.5,363.5z"></path><path fill="#356272" d="M327.74,135.3H184.26c-7.91,0-15.63,0.8-23.1,2.33c-52.38,10.72-91.9,57.17-91.9,112.67v89.49    c0,63.41,51.59,115,115,115h143.48c63.41,0,115-51.59,115-115V250.3C442.74,186.89,391.151,135.3,327.74,135.3z M412.74,339.79    c0,46.87-38.13,85-85,85H184.26c-46.87,0-85-38.13-85-85V250.3c0-46.86,38.13-85,85-85h143.48c46.87,0,85,38.13,85,85V339.79z"></path><rect width="20" height="129.392" x="199.883" y="38.356" fill="#356272" transform="rotate(-134.999 209.88 103.056)"></rect><circle cx="255.626" cy="57.309" r="15.017" fill="#356272"></circle><circle cx="173.367" cy="295.191" r="37.073" fill="#FFA800"></circle><path fill="#356272" d="M173.37,244.98c-27.83,0-50.48,22.64-50.48,50.47c0,27.84,22.65,50.479,50.48,50.479    s50.47-22.64,50.47-50.479C223.84,267.62,201.2,244.98,173.37,244.98z M173.37,325.929c-16.81,0-30.48-13.67-30.48-30.479    c0-16.8,13.67-30.47,30.48-30.47c16.8,0,30.47,13.67,30.47,30.47C203.84,312.26,190.17,325.929,173.37,325.929z"></path><circle cx="173.367" cy="295.454" r="15.502" fill="#356272"></circle><rect width="89.467" height="20" x="305.117" y="325.939" fill="#ECF0F1"></rect><rect width="129.964" height="20" x="264.62" y="285.454" fill="#ECF0F1"></rect><circle cx="349.851" cy="254.971" r="13.365" fill="#ECF0F1"></circle><path fill="#FFF" d="M442.74,250.3v89.49c0,63.41-51.59,115-115,115H256V135.3h71.74   C391.151,135.3,442.74,186.89,442.74,250.3z" opacity=".1"></path></svg>