<?xml version="1.0" encoding="UTF-8"?>
<svg xmlns="http://www.w3.org/2000/svg" version="1.1" width="698px" height="705px" style="shape-rendering:geometricPrecision; text-rendering:geometricPrecision; image-rendering:optimizeQuality; fill-rule:evenodd; clip-rule:evenodd" xmlns:xlink="http://www.w3.org/1999/xlink">
  <path fill="#020202" d="M 269.5,5.5 C 283.453,4.95323 289.62,11.6199 288,25.5C 285.565,32.9343 280.732,38.101 273.5,41C 187.68,63.4969 121.847,112.664 76,188.5C 60.8694,214.094 50.2027,241.427 44,270.5C 38.2806,284.942 28.114,290.109 13.5,286C 8.10482,281.705 6.27149,276.205 8,269.5C 28.3153,190.334 70.1486,125.167 133.5,74C 173.814,41.3429 219.147,18.5095 269.5,5.5 Z"/>
  <path fill="#020202" d="M 279.5,80.5 C 293.001,79.1727 299.501,85.1727 299,98.5C 296.5,105.685 292,111.185 285.5,115C 206.544,135.741 152.378,184.241 123,260.5C 120.485,269.562 117.819,278.562 115,287.5C 107.555,298.043 98.0551,300.71 86.5,295.5C 82.2651,290.959 80.7651,285.626 82,279.5C 102.059,205.788 144.559,148.955 209.5,109C 231.476,95.8494 254.809,86.3494 279.5,80.5 Z"/>
  <path fill="#ef463c" d="M 386.5,133.5 C 498.519,128.759 585.686,172.426 648,264.5C 702.96,358.274 705.627,453.608 656,550.5C 640.226,578.353 620.393,603.019 596.5,624.5C 616.313,648.147 636.313,671.647 656.5,695C 568.833,695.667 481.167,695.667 393.5,695C 295.324,686.193 220.157,640.359 168,557.5C 126.66,483.755 118.326,406.422 143,325.5C 173.126,241.041 229.959,182.541 313.5,150C 337.334,141.652 361.667,136.152 386.5,133.5 Z"/>
  <path fill="#fffdfd" d="M 395.5,237.5 C 409.134,236.904 417.634,243.237 421,256.5C 421.333,292.833 421.667,329.167 422,365.5C 427.278,381.056 437.445,385.556 452.5,379C 457.234,375.699 460.067,371.199 461,365.5C 461.333,336.5 461.667,307.5 462,278.5C 469.218,265.072 479.718,261.572 493.5,268C 498.031,271.571 501.198,276.071 503,281.5C 503.333,309.167 503.667,336.833 504,364.5C 508.823,381.662 519.323,386.495 535.5,379C 539.721,375.395 542.554,370.895 544,365.5C 544.108,358.089 544.775,350.755 546,343.5C 555.932,330.415 567.265,329.082 580,339.5C 582.194,342.554 583.861,345.888 585,349.5C 585.667,393.833 585.667,438.167 585,482.5C 579.597,498.62 569.097,503.453 553.5,497C 549.908,494.079 547.075,490.579 545,486.5C 544.667,478.833 544.333,471.167 544,463.5C 538.239,447.914 527.739,443.414 512.5,450C 508.542,453.421 505.708,457.588 504,462.5C 503.667,491.833 503.333,521.167 503,550.5C 497.27,566.951 486.437,571.784 470.5,565C 465.705,561.245 462.538,556.412 461,550.5C 460.667,525.5 460.333,500.5 460,475.5C 456.583,463.09 448.416,457.256 435.5,458C 427.234,460.599 422.068,466.099 420,474.5C 419.667,510.5 419.333,546.5 419,582.5C 411.85,595.328 401.683,598.494 388.5,592C 383.421,588.01 380.255,582.843 379,576.5C 378.667,539.5 378.333,502.5 378,465.5C 373.647,453.569 365.147,448.736 352.5,451C 345.572,453.594 341.072,458.427 339,465.5C 338.952,485.551 338.285,505.551 337,525.5C 329.771,536.765 319.938,539.932 307.5,535C 302.884,532.382 299.717,528.549 298,523.5C 296.647,504.545 295.647,485.545 295,466.5C 290.114,455.306 281.614,450.806 269.5,453C 262.339,455.808 257.839,460.974 256,468.5C 255.892,475.911 255.225,483.245 254,490.5C 247.299,500.623 238.133,503.79 226.5,500C 220.349,496.521 216.516,491.354 215,484.5C 214.333,438.5 214.333,392.5 215,346.5C 220.677,332.911 230.511,328.411 244.5,333C 249.05,335.883 252.55,339.716 255,344.5C 255.333,356.833 255.667,369.167 256,381.5C 261.458,395.647 271.292,400.147 285.5,395C 290.96,391.199 294.46,386.032 296,379.5C 296.333,356.833 296.667,334.167 297,311.5C 302.772,297.03 312.939,292.53 327.5,298C 332.8,301.1 336.3,305.6 338,311.5C 338.028,344.547 338.695,377.547 340,410.5C 346.804,423.328 356.638,426.494 369.5,420C 373.928,416.908 376.761,412.741 378,407.5C 378.333,356.5 378.667,305.5 379,254.5C 382.019,246.316 387.519,240.649 395.5,237.5 Z"/>
</svg>
